<?xml version="1.0" encoding="UTF-8"?>
<svg version="1.1" viewBox="0 0 2000 2000" width="1280" height="1280" xmlns="http://www.w3.org/2000/svg">
<path transform="translate(1519,368)" d="m0 0 4 1 9 10 7 7 6 5 109 109v2h2l5 5v2l4 2 5 6-1 4h-2l-2 4h-2l-2 4-68 68h-2v2l-4 4h-2l-2 4-117 117-6 5-7 8-4 4h-2l-2 4-28 28h-2l-2 4-8 8h-2l-1 3-105 105h-2l-1 3-6 5-6 7-8 7-4 5-8 7-4 5-5 5h-2l-2 4h-2l-2 4h-2l-2 4-40 40h-2l-2 4-9 9-3 2 2 4 9 9v2l4 2 36 36 7 8 33 33 2 1v2l4 2 118 118v2h2v2h2v2l4 2 265 265-1 4-147 147-4-1-476-476-8-7-154-154 1-4 168-168h2l2-4 104-104h2l2-4h2l2-4 8-8h2l2-4h2l2-4 8-8h2l2-4 12-12h2l2-4 12-12h2l2-4 120-120h2l2-4h2l2-4 8-8h2l2-4 28-28h2l2-4 12-12h2l2-4z" fill="#E94D42"/>
<path transform="translate(1216,71)" d="m0 0 4 2 21 21 6 5 7 8 10 10 8 7 46 46 6 5 16 16v2l4 2 30 30-1 4-79 79-7 8-73 73-7 8-101 101-1 2h-2l-2 4-58 58-7 8-3 3h-2l-1 3-13 13h-2l-2 4-83 83-7 8-77 77-7 8-75 75-1 2h-2l-2 4-14 14-4-1-71-71-2-1v-2l-4-2-83-83-6-5-6-7-3-2v-2l-4-2v-2l-3-1-6-7-8-7-49-49-8-7-36-36-4-3v-2l-4-2-108-108-8-7-1-5 47-47 7-8 68-68 3-4h2l2-4 18-18 5 2 51 51 2 1v2l4 2 6 7 2 1v2l4 2 98 98 8 7 75 75 6 5 4-2 35-35 7-8 40-40 7-8 20-20h2l2-4h2l2-4 77-77 5-6 5-5h2l2-4 86-86 5-6 6-5 6-7 54-54 7-8 47-47 6-7h2l2-4h2l1-3 8-7 3-4h2v-2h2l2-4h2l2-4z" fill="#353A6E"/>
<path transform="translate(740,1138)" d="m0 0h3l7 8 625 625-1 4-151 151-2 3-4-2-153-153v-2l-4-2v-2h-2l-7-8-3-2v-2l-4-2-132-132v-2l-4-2v-2l-4-2v-2l-3-1-7-8-6-5v-2l-3-1-5-6-8-7-4-4v-2l-4-2v-2l-4-2-118-118v-2h-2l-3-4-4 1-209 209-1 2h-2v2h-2l-1 3-8 7-5 6h-2l-1 3-3 3h-2v2h-2l-2 4h-2l-2 4-4 4h-2l-1 3-5 4-3-1-5-6-7-6-5-6-3-2v-2l-4-2-5-5v-2h-2l-5-5v-2l-4-2-13-14-6-5-7-8-47-47-7-6-5-6-8-7-9-9-5-6 2-4 7-8 401-401z" fill="#353A6E"/>
<path transform="translate(1032,855)" d="m0 0 5 3 4 5v2l4 2v2l4 2 8 8 7 8 47 47 6 5 7 8 19 19 6 5v2l4 2 27 27v6l-140 140-4 5-5 2-148-148 1-4z" fill="#67DDE1"/>
</svg>
